<mxfile host="app.diagrams.net" modified="2021-07-29T08:13:35.693Z" agent="5.0 (Macintosh; Intel Mac OS X 10_15_7) AppleWebKit/537.36 (KHTML, like Gecko) Chrome/92.0.4515.107 Safari/537.36" etag="iuHldxARVT29WExRv5lH" version="14.9.3" type="github">
  <diagram id="-5kbHJbjd8nHIGI5ZT-9" name="Page-1">
    <mxGraphModel dx="872" dy="820" grid="1" gridSize="10" guides="1" tooltips="1" connect="1" arrows="1" fold="1" page="1" pageScale="1" pageWidth="850" pageHeight="1100" math="0" shadow="0">
      <root>
        <mxCell id="0" />
        <mxCell id="1" parent="0" />
      </root>
    </mxGraphModel>
  </diagram>
</mxfile>
